<?xml version="1.0" encoding="UTF-8"?><svg id="Layer_2" xmlns="http://www.w3.org/2000/svg" viewBox="0 0 362.28 495.01"><defs><style>.cls-1{fill:#fff;}.cls-2{fill:#2a337f;}.cls-3{fill:#dccb23;}.cls-4{fill:#ee3024;}</style></defs><g id="Layer_1-2"><path class="cls-4" d="m181.14,31.97s-36.48,37.62-104.39,37.62c-36.26,0-62.13-17.66-62.13-17.66C-60.96,370.7,181.14,478.99,181.14,478.99c0,0,242.1-108.3,166.52-427.06,0,0-25.87,17.66-62.13,17.66-67.91,0-104.39-37.62-104.39-37.62h0Z"/><path d="m181.14,52.81c16.97,12.56,52.37,32.78,104.39,32.78,20.64,0,38.32-5.04,50.9-10.12,12.49,62.42,13.07,120.62,1.67,173.26-10.01,46.23-29.25,88.41-57.18,125.37-24.99,33.07-52.51,55.82-71.2,69.09-12.23,8.69-22.4,14.56-28.59,17.89-6.2-3.32-16.36-9.2-28.59-17.89-18.68-13.27-46.2-36.02-71.2-69.09-27.94-36.96-47.18-79.14-57.18-125.37-11.39-52.64-10.82-110.84,1.67-173.26,12.58,5.08,30.26,10.12,50.9,10.12,52.02,0,87.43-20.22,104.39-32.78"/><path class="cls-1" d="m128.79,428.99l-4.26.89c-.03-13.13,2.6-11.36,5.74-26.26s2.81-14.3,4.79-18.51c1.83-3.9,5.95-22.76,2.27-29.35-.27-.49.19-1.07.74-.94,4.19,1.02,12.66,3.38,12.66,4.89,0,2.45-4.01,2.02-4.01,2.02.6,3.82,6.31,6.15,6.31,7.11s-5.47-.11-5.47,1.04c0,3.62,3.93,4.88,3.93,6.21,0,.97-5.38.18-5.38,2.31,0,2.41,4.18,3.03,4.18,3.72,0,1.05-4.99,1.28-4.99,4.1,0,2.59,3.53,2.81,3.53,3.69,0,1.64-4.32.65-5.17,1.5-.37.37.33,1.16.33,3.05s-2.34,17.81-9.15,23.21c-3.69,3.12-4.68,4.3-6.04,11.32Z"/><path class="cls-2" d="m208.46,289.86c7.53-3.51,15.92-7.62,20.8-11.42,11.51-8.91,20.77-23.5,20.77-23.5-15.99,16.09-19.51,21.63-41.8,31.73l.24,3.19Z"/><path class="cls-3" d="m123.86,446.87c2.37-3.8,3.99-8.3,4.01-13.57-2.63-.22-6.01.49-6.01.49-2.11,9.8-13.54,22.04-17.1,23.6s-5.86,3.09-5.86,13.86c2.59.13,5.33-.72,5.33-.72,0,0-.14-5.09,1.81-7.42,1.03-1.23,7.06-4.34,12.52-9.72,0,0,2.77,2.2,1.18,11.2,4.28-.96,6.19-.13,6.19-.13,0,0,5.04-8.37-2.08-17.59Z"/><path class="cls-1" d="m134.43,300.57l5.17-4.79s-50.85-29.19-50.85-111.07c0-55.02,25.6-92.18,25.6-92.18,0,0-30.71,25.42-30.71,100.17,0,81.69,50.79,107.88,50.79,107.88Z"/><path class="cls-2" d="m213.64,280.22l2.78-6.33s22.39-15.28,42.72-37.44c-20.8,32.25-45.5,43.78-45.5,43.78Z"/><path class="cls-2" d="m222.47,265.19l5.58-10.25s25.58-19.55,50.25-51.89c-10,29.56-55.83,62.14-55.83,62.14Z"/><path class="cls-2" d="m233.8,244.69l4.83-9.58s27.11-21.5,50.11-51.28c-11.89,25.78-54.94,60.86-54.94,60.86Z"/><path class="cls-2" d="m243.64,225.94l3.78-11.11s23.56-19.56,49.22-49.78c-9,25.33-53,60.89-53,60.89Z"/><path class="cls-2" d="m254.64,203.61l4.5-10.89s34.61-34.33,49.83-55.67c-12.33,36.44-54.33,66.56-54.33,66.56Z"/><path class="cls-2" d="m267.3,180.05l1.22-6.33s30.97-32.28,50.11-61.78c-.44,21.67-51.33,68.11-51.33,68.11Z"/><path class="cls-2" d="m274.64,161.94l.89-8s25.44-24.5,55.44-72.83c-.17,22.5-56.33,80.83-56.33,80.83Z"/><path class="cls-2" d="m279.3,144.94l1.42-7.33s33.83-44.92,54.92-85.25c0,0,.83,35.25-56.33,92.58Z"/><path class="cls-2" d="m281.6,135.44l-1.12-3.08s42.83-64.53,53.17-112.64c1.56,31.22,1.05,33.07-3.59,41.09s-48.46,74.63-48.46,74.63Z"/><path class="cls-1" d="m167.97,383.89s-1.89.78-2.83-1.17c3.33-12.28,2.83-26.87,2.83-41.36,0-9.5,2.48-17.25,6.17-23.33s9.28-8.97,23.22-8.97c-4.72,1.78-11.06,4.33-10.67,6.17s9.44-.5,9.44-.5c0,0-7.06,3.06-9.22,4.39,8.11-.17,12.44,1.83,12.44,1.83,0,0-8.89,1-11.39,3.83,6.44.11,10.72,2.56,10.72,2.56,0,0-9.06,1.44-13.44,5.67,5-.06,13.83-.94,13.83,1.17,0,2.5-4.94.06-12.67,4.17,1.61,3.28,12.28,3.94,12.28,3.94,0,0-3.44,2.61-12.22,3.17,2.61,4.67,9.44,6.67,9.44,6.67-4.06,2.7-12.39,1.83-12.39,3.83,0,3.28,10.56,4,10.56,4-10.33,5.5-19.78,14-26.11,23.94Z"/><path class="cls-2" d="m204.42,312.33s18.44,8,34.56,19.72c-19.94-8.39-34.56-19.72-34.56-19.72Z"/><path class="cls-2" d="m204.42,316.89s14.61,8,27.89,18.5c0,0-20.2-9.31-27.89-18.5Z"/><path class="cls-2" d="m204.42,323.52s12.61,7.34,22.82,17.17c0,0-19.47-8.36-22.53-13.85-.58-1.08-.29-3.32-.29-3.32Z"/><path class="cls-2" d="m202.21,335.08l.57-2.49s11.39,5.17,18.91,12.7c-11.63-6.64-19.48-10.21-19.48-10.21Z"/><path class="cls-2" d="m201.77,341.25l.45-2.66s6.23,1.34,10.36,6.4c-5.4-3.19-10.81-3.74-10.81-3.74Z"/><path class="cls-2" d="m200.36,348.91l-1-3.36s5.38.04,8.11,4.38c-3.82-1.91-7.11-1.02-7.11-1.02Z"/><path class="cls-2" d="m199.36,351.87s.3-.89,1.03-1.12c.89,3.03,3.95,4.69,3.95,4.69,0,0-3.65,1.18-4.98-3.57Z"/><path class="cls-1" d="m126.57,313.8s1.28-4.26,5.02-8c-15.74-8.51-48.81-43.11-48.81-88.04,0,0-3.32,4.98-3.32,17.11,0,45.36,47.11,78.94,47.11,78.94Z"/><path class="cls-1" d="m278.28,136.78c-.89-.89-5.64,6.64-18.89,23.06,27.21-34.45,84.6-124.3,66.98-156.98,0,21.74-17.78,80.01-72.26,159.11-26.82,83.03-66.69,128.94-78.33,130.27,16.15-13.66,65.01-82.27,74.69-129.59C306.48,86.91,324.31,10.31,316.84,0c-17.01,66.82-46.72,130.65-77.91,162.03.38,7.67-12.61,36.81-26.01,62.81s-22.81,47.62-40.79,53.94c-17.99,6.33-39.76,25.18-44.24,37.87-8.57,22.66-28.06,18.07-31.71,52.77,0,0,2.28-2.49,10.19-2.94,4.29-7.12,9.3-4.89,9.3-4.89,39.21-22.55,37.72-9.91,45.6-19.74,8.34-10.4,4.38-20.27,15.04-28.72,5.23-4.15,11.17-7.85,18.57-7.85,6.96,0,48.47,23.17,51.28,28.06-3.09-7.83-16.81-17.15-28.87-24.23-16.4-10.21-24.7-7.91-24.7-11.04,0-.91,5.5-3.4,12.45-6.61v-3.49c-7.16,2.35-16.06,2.11-16.06,2.11,0,0,8.49-4.34,19.34-6.41l4.5-7.44c-9.99.99-9.83,2.81-13.18,2.81s-3.93-.45-1.28-2.52,19.5-8.33,19.5-8.33l6-10.43s-6.38.77-9.87,1.62c6.01-4.16,13.92-8.55,13.92-8.55l6.89-12.77c-11.4,5.79-12.51,6.77-13.32,5.74-.81-1.02-.17-2.08,3.66-4.98,3.83-2.89,13.62-9.53,13.62-9.53l5.06-10.51c-10.98,8.51-13.26,9.38-14.08,8.55s14.08-14.17,16.85-15.11c8.3-11.74,9.49-16.43,9.49-16.43,0,0-14,13.11-17.11,12.89l3.74-6.38c14.13-10.68,21.87-14.49,22.83-25.47-15.26,14.68-19.15,19.09-20.3,17.94s11.55-10.47,20.3-20.36c8.74-9.89,7.15-13.66,7.92-18.89-14.49,22.34-19.45,28.7-22.6,26.85-2.19-1.34,7.21-6.68,17.81-22,10.6-15.32,8.6-14.11,8.13-17.51-13.91,22-21.95,27.76-21.95,27.76,22.16-28.69,24.33-32.95,23.44-33.84Zm-175.15,223.83s-2.6-4.51,3.83-8.38c1.45,2.58-3.83,8.38-3.83,8.38Z"/><path class="cls-3" d="m105.04,368.99s-5.18-.05-8.12,3.27c-1.77,2.23-1.61,12.91-.38,14.14s6.77,1.09,10.47-1.09c-2.71-.57-6.48-1.24-7.02-2.55s2.69-9.72,5.05-13.77Z"/><path class="cls-3" d="m108,366.95s1.19-3,6.19-3.53c1.23,11.94-1.49,15.51-7.6,16.81,3.62-6.34,2.98-10.28,1.4-13.28Z"/><path class="cls-2" d="m159.54,346.25s3.48-1.47,4.88,2.49c-4.34.38-4.88-2.49-4.88-2.49Z"/><path class="cls-2" d="m154.18,349.47s5.33,1.98,8.36,7.24c-5.36-2.62-8.36-7.24-8.36-7.24Z"/><path class="cls-2" d="m152.74,355.02s5.52-.41,7.18,4.72c-5.94-.83-7.18-4.72-7.18-4.72Z"/><path class="cls-3" d="m161.68,384.91s.77-5.79,1.15-12.09c-7.19,14.6-7.23,5.45-15.32,28.09l2.17.51c6.21-12.89,8.3-13.39,12-16.51Z"/><path class="cls-2" d="m122.23,321.46c-20.04,15.79-16.77,14.43-31.49,17.11,11.49,5.74,20.98-4.81,31.49-17.11Z"/><path class="cls-1" d="m103.34,100.18c-36.13,51.06-30.17,105.67-23.41,118.48.56-2.11,1.2-4.26,1.92-6.44-4.04-36.6-4.84-58.82,21.49-112.04Z"/><path class="cls-1" d="m78.72,223.78c-.67,3.21-1.16,6.33-1.49,9.37-13.84-19.74-17.29-58.55,6.41-103.65-16.69,52.1-12.31,80.26-4.92,94.28Z"/><path class="cls-1" d="m76.83,238.4c-.11,2.34-.12,4.62-.04,6.85-28.47-16.78-24.47-40.34-10.93-74.39-6.04,31.06-7.91,51.23,10.97,67.53Z"/><path class="cls-2" d="m77.04,249.47c.34,3.88.95,7.6,1.78,11.15-25.91,0-29.29-9.35-27.76-34.95,10.85,21.64,16.73,22.57,25.98,23.8Z"/><path class="cls-2" d="m79.91,264.76c1.14,3.92,2.55,7.63,4.16,11.13-19.98,9.85-29.81-2.09-31.79-17.21,11.17,9,20.67,7.06,27.63,6.08Z"/><path class="cls-2" d="m85.64,279.12c2.15,4.2,4.56,8.06,7.1,11.6-17.53,10.79-29.67.19-35.67-9.7,17.36,3,21.81,3.34,28.57-1.89Z"/><path class="cls-2" d="m94.95,293.67c1.46,1.87,2.95,3.64,4.44,5.31-22.15,13.53-25.41,10.38-32.05.36,16.91.13,23.33-1.18,27.61-5.67Z"/><path class="cls-2" d="m101.56,301.33c1.45,1.52,2.88,2.94,4.29,4.26-16.98,12.3-22.64,12.35-32.85,6.64,21.19-3.61,21.12-5.11,28.56-10.9Z"/><path class="cls-2" d="m108.25,307.77c1.05.93,2.07,1.8,3.06,2.61-13.76,12-22.78,10.53-31.05,9.67,21.35-6.29,23.3-7.42,27.99-12.27Z"/><path class="cls-2" d="m113.54,312.15c1.4,1.09,2.7,2.04,3.86,2.86,0,0-5.67,4.45-10.14,7.13s-8.98,6.64-24.13,2.3c12.55-1.91,13.57-1.83,18.13-4.51s12.28-7.78,12.28-7.78Z"/><path class="cls-2" d="m119.25,316.29c2.43,1.63,3.92,2.45,3.92,2.45-14.77,12.72-23.66,19.7-36.77,11.83,20.51-3.45,18.43-2.06,32.85-14.28Z"/><path class="cls-3" d="m90.32,475.06c-.32-9.38,2.3-12.19,6.89-13.34-1.53,4.47-1.79,10.15-1.79,10.15,0,0-3.57,1.66-5.11,3.19Z"/><path class="cls-3" d="m84.77,478.12s.77-6.26,3-8.49c.06,3.77.38,6.64.38,6.64,0,0-1.53.32-3.38,1.85Z"/><path class="cls-1" d="m80.79,495.01s-.83-7.48,1.66-12.74c1.34-1.36,4.47-1.91,4.47-1.91,0,0-3.57,6-6.13,14.66Z"/><path class="cls-1" d="m88.15,490.14s.47-9.15,2.47-12.3c1.34-1.47,4.51-1.83,4.51-1.83,0,0-3.23,5.32-6.98,14.13Z"/><path class="cls-1" d="m97.21,484.78s.27-8.04,1.69-10.38c2.4-.81,5.8,0,5.8,0,0,0-2.43,2.17-7.49,10.38Z"/><path class="cls-1" d="m117.04,479.59s4.21-4.72,2.17-11.45c3.23-1.7,6.09-.38,6.09-.38,0,0,1.02,6.3-8.26,11.83Z"/><path class="cls-1" d="m146.68,413.75s-1.66-7.24.41-10.31c1.66.06,2.9.61,2.9.61,0,0-1.85,2.23-3.32,9.7Z"/><path class="cls-1" d="m154.66,403.12s.06-6.32,3.48-8.33c1.47,1.02,3.1,1.4,3.1,1.4,0,0-2.94,1.88-6.57,6.93Z"/><path class="cls-1" d="m158.14,407.4s5.78-6.7,6.77-11.17c1.31.54,2.78,1.63,2.78,1.63,0,0-2.94,6.29-9.54,9.54Z"/><path class="cls-1" d="m162.38,408.35s3.06-1.47,6.1-5.23c-5.65,17.49-16.41,23.06-16.41,23.06,0,0,9.79-11.62,10.32-17.83Z"/><path class="cls-3" d="m163.13,393.63s-2.68-1.45-6-.47c1.56-3.48,3.19-6.09,5.28-5.28s.68,2.43.72,5.74Z"/><path class="cls-3" d="m169.38,395.63c-2.81-2.43-3.66-2.27-3.66-3.28s1.15-5.23,2.43-5.23c1.83,0,3.32-2.81,3.32-2.81.64,8.04-2.85,7.06-2.09,11.32Z"/></g></svg>